# Blender v2.78 (sub 0) OBJ File: ''
# www.blender.org
mtllib icub_simple_collision_r_upper_leg.mtl
o r_thigh_mesh_Cylinder.023
v -0.038500 -0.000000 0.224000
v -0.038500 0.025688 0.241164
v -0.038500 0.017164 0.198312
v -0.038500 -0.025688 0.206836
v -0.038500 -0.030301 0.230027
v -0.038500 0.006027 0.254301
v 0.038500 -0.000000 0.224000
v 0.038500 0.025688 0.241164
v 0.038500 0.030301 0.217973
v 0.038500 -0.006027 0.193699
v 0.038500 -0.025688 0.206836
v 0.038500 -0.030301 0.230027
v 0.038500 -0.017164 0.249688
v 0.038500 0.006027 0.254301
v -0.038500 -0.017164 0.249688
v -0.038500 -0.006027 0.193699
v -0.038500 0.030301 0.217973
v 0.038500 0.017164 0.198312
v 0.000000 -0.000000 0.224000
v 0.018526 0.027727 0.224000
v -0.032706 -0.006506 0.224000
v -0.018526 -0.027727 0.224000
v 0.006505 -0.032706 0.224000
v 0.027727 -0.018526 0.224000
v 0.032706 0.006506 0.224000
v 0.000000 -0.000000 0.000000
v -0.027727 0.018526 0.000000
v -0.032706 -0.006506 -0.000000
v 0.006506 -0.032706 0.000000
v 0.027727 -0.018526 0.000000
v 0.032706 0.006506 0.000000
v -0.027727 0.018526 0.224000
v -0.006506 0.032706 0.224000
v 0.018526 0.027727 0.000000
v -0.018526 -0.027727 0.000000
v -0.006505 0.032706 0.000000
v -0.049316 0.000500 0.109888
v -0.047652 0.013840 0.050020
v -0.048113 0.000504 0.050412
v -0.040238 0.032878 0.142625
v -0.048152 0.000261 0.172500
v -0.039464 0.036129 0.050000
v -0.046265 0.015628 0.172497
v -0.024806 0.046540 0.050000
v 0.000003 0.050020 0.050000
v -0.025047 0.043784 0.124878
v 0.023159 0.046389 0.050000
v 0.000005 0.046817 0.119331
v 0.022717 0.042637 0.126177
v 0.013758 0.050816 0.023982
v -0.033364 0.041982 0.043955
v -0.000004 0.051215 0.028673
v -0.018699 0.048685 0.036966
v 0.027150 0.046613 0.021110
v 0.037649 0.037178 0.050000
v 0.039068 0.035640 0.020204
v 0.046279 0.022993 0.050000
v 0.049793 0.000500 0.049999
v 0.047899 0.000500 0.020599
v 0.045668 0.020129 0.020415
v 0.038465 0.034942 0.140243
v 0.051881 0.000628 0.109997
v -0.046810 0.000500 0.189467
v 0.053082 0.000672 0.174998
v 0.051182 0.013809 0.174990
v 0.052488 0.000573 0.189381
v -0.000908 -0.065286 0.162002
v 0.027906 -0.058361 0.175005
v -0.000000 -0.063064 0.189006
v 0.018752 -0.062767 0.162002
v -0.018772 -0.063060 0.162003
v -0.019966 -0.058624 0.189695
v -0.027901 -0.058222 0.175006
v 0.027400 -0.054520 0.021073
v -0.039215 -0.046469 0.175004
v -0.037231 -0.044797 0.191575
v -0.045860 -0.027328 0.175004
v -0.044062 -0.025276 0.192942
v 0.000000 -0.062827 0.028680
v 0.031178 -0.057795 0.108574
v 0.039913 -0.039860 0.020202
v -0.029865 -0.060731 0.109547
v -0.046449 -0.035644 0.109808
v -0.049065 -0.015874 0.108946
v -0.041112 -0.049935 0.109824
v 0.000621 -0.066104 0.108931
v 0.035619 -0.050392 0.050000
v 0.040668 -0.047299 0.175004
v 0.049665 -0.028331 0.175004
v 0.036631 -0.050328 0.190900
v 0.048853 -0.028915 0.192806
v 0.043695 -0.043410 0.109806
v 0.014063 -0.060774 0.023897
v 0.045920 -0.030872 0.050000
v 0.046063 -0.021375 0.020444
v -0.047586 -0.015638 0.050125
v -0.042637 -0.039879 0.050000
v -0.034308 -0.053306 0.050000
v -0.020949 -0.061505 0.050000
v -0.032969 -0.053721 0.043766
v 0.000002 -0.064519 0.049995
v -0.017838 -0.061224 0.036560
v 0.020805 -0.060801 0.050000
v 0.050641 -0.021160 0.110394
vn 1.0000 -0.0000 0.0000
vn 0.0000 0.0000 1.0000
vn 0.0000 0.0000 -1.0000
vn -1.0000 0.0000 0.0000
vn 0.6455 -0.4313 0.6302
vn 0.1515 -0.7614 0.6302
vn 0.1515 -0.7614 -0.6302
vn 0.6455 -0.4313 -0.6302
vn -0.9771 0.2092 -0.0384
vn -0.9997 0.0025 -0.0223
vn -0.9940 0.1091 0.0110
vn -0.9182 0.3960 0.0087
vn -0.9985 0.0393 0.0367
vn -0.8209 0.5381 -0.1909
vn -0.9901 0.1216 -0.0703
vn -0.8341 -0.5515 0.0070
vn -0.8340 -0.5381 0.1216
vn -0.9691 -0.2465 0.0023
vn 0.8325 0.5534 -0.0273
vn 0.9458 0.3246 0.0045
vn 0.7194 0.6941 0.0231
vn 0.3205 0.9460 0.0484
vn 0.3525 0.9338 0.0616
vn 0.0012 0.9982 0.0590
vn -0.4099 0.9114 0.0350
vn 0.0302 0.9984 0.0478
vn -0.3605 0.9321 0.0354
vn 0.2007 0.9772 0.0692
vn -0.0168 0.9979 0.0627
vn -0.6032 0.7974 0.0177
vn -0.1609 0.9832 0.0864
vn 0.5064 0.8616 0.0344
vn 0.8100 0.5860 -0.0212
vn 0.9982 0.0237 -0.0547
vn 0.9988 0.0387 -0.0307
vn 0.9679 0.2473 -0.0439
vn -0.2465 -0.9652 -0.0871
vn 0.0468 -0.9969 -0.0631
vn 0.0261 -0.9987 -0.0422
vn -0.8115 -0.5645 0.1507
vn -0.9750 -0.2058 0.0837
vn -0.9719 -0.2051 0.1153
vn 0.8708 -0.4826 -0.0936
vn 0.7478 -0.6612 -0.0597
vn 0.6024 -0.7916 -0.1024
vn 0.9794 -0.1897 -0.0686
vn 0.9529 -0.2985 -0.0534
vn 0.3693 -0.9284 -0.0399
vn -0.9972 -0.0752 -0.0004
vn -0.4651 -0.8852 -0.0006
vn 0.0443 -0.9989 -0.0169
vn -0.2615 -0.9633 0.0607
vn 0.2727 -0.9594 -0.0714
vn 0.6694 -0.7276 0.1502
vn 0.4525 -0.8825 0.1280
vn 0.7989 -0.6002 0.0397
vn 0.9520 -0.3008 0.0558
vn 0.9620 -0.2722 0.0202
vn 0.5348 -0.8448 -0.0192
vn 0.2686 -0.9620 0.0490
vn 0.9838 -0.1772 -0.0253
vn 0.9997 0.0165 0.0154
vn 0.8723 -0.4885 -0.0196
vn 0.9984 -0.0381 0.0412
vn -0.3381 -0.9387 -0.0660
vn -0.6330 -0.7668 -0.1067
vn -0.5564 -0.8120 0.1762
vn 0.9756 0.2189 -0.0172
vn 0.9855 0.1659 -0.0349
vn -0.9964 -0.0289 0.0793
vn 0.7614 0.1515 0.6302
vn 0.7614 0.1515 -0.6302
vn -0.4313 -0.6455 0.6302
vn -0.4313 -0.6455 -0.6302
vn -0.7614 -0.1515 0.6302
vn -0.7614 -0.1515 -0.6302
vn -0.1515 0.7614 0.6302
vn 0.4313 0.6455 0.6302
vn 0.4313 0.6455 -0.6302
vn -0.1514 0.7614 -0.6302
vn -0.6455 0.4313 0.6302
vn -0.6455 0.4313 -0.6302
vn -0.9933 -0.1098 -0.0346
vn -0.9225 -0.3804 -0.0657
vn -0.7124 -0.6963 -0.0875
vn -0.6302 -0.6455 -0.4313
vn -0.6302 -0.1515 -0.7614
vn 0.6302 -0.1515 -0.7614
vn 0.6302 -0.6455 -0.4313
vn -0.6302 0.1515 0.7614
vn -0.6302 -0.4313 0.6455
vn 0.6302 -0.4313 0.6455
vn 0.6302 0.1515 0.7614
vn -0.0007 -0.9988 0.0486
vn 0.0255 -0.9882 0.1510
vn -0.6302 0.4313 -0.6455
vn -0.6302 0.7614 -0.1514
vn 0.6302 0.7614 -0.1514
vn 0.6302 0.4313 -0.6455
vn -0.6302 0.6455 0.4313
vn 0.6302 0.6455 0.4313
vn -0.6302 -0.7614 0.1515
vn 0.6302 -0.7614 0.1515
vn -0.4039 -0.8952 0.1882
usemtl iCub_light_blue
s off
f 7//1 9//1 8//1
f 7//1 11//1 10//1
f 7//1 14//1 13//1
f 19//2 21//2 22//2
f 19//2 20//2 33//2
f 26//3 28//3 27//3
f 26//3 30//3 29//3
f 19//2 33//2 32//2
f 19//2 32//2 21//2
f 19//2 23//2 24//2
f 19//2 24//2 25//2
f 26//3 31//3 30//3
f 26//3 29//3 35//3
f 26//3 36//3 34//3
f 19//2 25//2 20//2
f 26//3 34//3 31//3
f 7//1 12//1 11//1
f 7//1 10//1 18//1
f 7//1 8//1 14//1
f 26//3 27//3 36//3
f 7//1 13//1 12//1
f 7//1 18//1 9//1
f 26//3 35//3 28//3
f 1//4 6//4 2//4
f 1//4 15//4 6//4
f 1//4 2//4 17//4
f 1//4 5//4 15//4
f 19//2 22//2 23//2
f 1//4 16//4 4//4
f 1//4 3//4 16//4
f 1//4 17//4 3//4
f 1//4 4//4 5//4
s 1
f 24//5 23//6 29//7 30//8
f 38//9 39//10 37//11
f 40//12 38//9 37//11
f 41//13 40//12 37//11
f 38//9 40//12 42//14
f 43//15 40//12 41//13
f 85//16 75//17 83//18
f 61//19 57//20 55//21
f 49//22 61//19 47//23
f 61//19 55//21 47//23
f 45//24 46//25 48//26
f 44//27 46//25 45//24
f 49//22 47//23 48//26
f 50//28 52//29 45//24
f 50//28 45//24 47//23
f 51//30 42//14 44//27
f 52//29 44//27 45//24
f 53//31 44//27 52//29
f 51//30 44//27 53//31
f 51//30 38//9 42//14
f 54//32 47//23 55//21
f 50//28 47//23 54//32
f 56//33 55//21 57//20
f 54//32 55//21 56//33
f 59//34 57//20 58//35
f 60//36 57//20 59//34
f 56//33 57//20 60//36
f 42//14 40//12 44//27
f 45//24 48//26 47//23
f 102//37 79//38 101//39
f 75//17 76//40 77//41
f 77//41 76//40 78//42
f 81//43 87//44 74//45
f 95//46 94//47 81//43
f 74//45 87//44 103//48
f 84//49 41//13 37//11
f 83//18 75//17 77//41
f 83//18 77//41 84//49
f 82//50 86//51 71//52
f 74//45 103//48 93//53
f 93//53 103//48 79//38
f 90//54 68//55 88//56
f 91//57 88//56 89//58
f 90//54 88//56 91//57
f 80//59 70//60 86//51
f 104//61 64//62 89//58
f 92//63 89//58 88//56
f 66//64 89//58 64//62
f 81//43 94//47 87//44
f 94//47 104//61 92//63
f 102//37 99//65 100//66
f 82//50 73//67 75//17
f 103//48 101//39 79//38
f 94//47 92//63 87//44
f 95//46 58//35 94//47
f 84//49 77//41 41//13
f 77//41 78//42 41//13
f 91//57 89//58 66//64
f 82//50 99//65 86//51
f 44//27 40//12 46//25
f 61//19 65//68 62//69
f 65//68 64//62 62//69
f 61//19 62//69 58//35
f 61//19 58//35 57//20
f 43//15 41//13 63//70
f 62//69 104//61 58//35
f 87//44 80//59 103//48
f 25//71 24//5 30//8 31//72
f 23//6 22//73 35//74 29//7
f 22//73 21//75 28//76 35//74
f 33//77 20//78 34//79 36//80
f 58//35 104//61 94//47
f 20//78 25//71 31//72 34//79
f 32//81 33//77 36//80 27//82
f 21//75 32//81 27//82 28//76
f 96//83 83//18 84//49
f 97//84 85//16 83//18
f 97//84 83//18 96//83
f 71//52 73//67 82//50
f 98//85 85//16 97//84
f 4//86 16//87 10//88 11//89
f 6//90 15//91 13//92 14//93
f 65//68 66//64 64//62
f 71//52 67//94 69//95
f 3//96 17//97 9//98 18//99
f 2//100 6//90 14//93 8//101
f 15//91 5//102 12//103 13//92
f 100//66 99//65 98//85
f 16//87 3//96 18//99 10//88
f 80//59 68//55 70//60
f 73//67 72//104 75//17
f 102//37 101//39 99//65
f 87//44 92//63 80//59
f 82//50 98//85 99//65
f 86//51 67//94 71//52
f 5//102 4//86 11//89 12//103
f 17//97 2//100 8//101 9//98
f 64//62 104//61 62//69
f 95//46 59//34 58//35
f 96//83 84//49 39//10
f 39//10 84//49 37//11
f 104//61 89//58 92//63
f 69//95 67//94 70//60
f 72//104 71//52 69//95
f 75//17 72//104 76//40
f 80//59 88//56 68//55
f 86//51 99//65 101//39
f 92//63 88//56 80//59
f 82//50 75//17 85//16
f 71//52 72//104 73//67
f 103//48 80//59 101//39
f 41//13 78//42 63//70
f 86//51 70//60 67//94
f 86//51 101//39 80//59
f 98//85 82//50 85//16
f 69//95 70//60 68//55
f 69//95 68//55 90//54
f 100//66 98//85 97//84
