# Blender v2.78 (sub 0) OBJ File: ''
# www.blender.org
mtllib icub_simple_collision_l_hip_roll_link.mtl
o l_hip_2_mesh_Cylinder.018
v 0.011863 0.028640 -0.037500
v -0.028640 0.011863 -0.037500
v 0.011863 -0.028640 -0.037500
v 0.011863 0.028640 0.037500
v 0.011863 -0.028640 0.037500
v 0.028640 0.011863 0.037500
v 0.028640 0.011863 -0.037500
v 0.028640 -0.011863 -0.037500
v -0.011863 -0.028640 -0.037500
v -0.028640 -0.011863 -0.037500
v -0.011863 0.028640 -0.037500
v 0.028640 -0.011863 0.037500
v -0.011863 -0.028640 0.037500
v -0.028640 -0.011863 0.037500
v -0.028640 0.011863 0.037500
v -0.011863 0.028640 0.037500
vn 0.0000 0.0000 -1.0000
vn 0.0000 0.0000 1.0000
vn 0.2971 0.7173 0.6302
vn 0.2971 0.7173 -0.6302
vn -0.2971 0.7173 -0.6302
vn -0.2971 0.7173 0.6302
vn -0.7173 0.2971 -0.6302
vn -0.7173 0.2971 0.6302
vn -0.7173 -0.2971 0.6302
vn -0.7173 -0.2971 -0.6302
vn -0.2971 -0.7173 -0.6302
vn -0.2971 -0.7173 0.6302
vn 0.7173 0.2971 0.6302
vn 0.7173 -0.2971 0.6302
vn 0.7173 -0.2971 -0.6302
vn 0.7173 0.2971 -0.6302
vn 0.2971 -0.7173 0.6302
vn 0.2971 -0.7173 -0.6302
usemtl iCub_soft_grey
s off
f 11//1 1//1 2//1
f 2//1 1//1 7//1
f 10//1 2//1 7//1
f 10//1 7//1 8//1
f 10//1 8//1 9//1
f 8//1 3//1 9//1
f 4//2 16//2 15//2
f 6//2 4//2 15//2
f 6//2 15//2 14//2
f 6//2 14//2 12//2
f 14//2 13//2 12//2
f 13//2 5//2 12//2
s 1
f 4//3 1//4 11//5 16//6
f 16//6 11//5 2//7 15//8
f 14//9 10//10 9//11 13//12
f 6//13 12//14 8//15 7//16
f 12//14 5//17 3//18 8//15
f 13//12 9//11 3//18 5//17
f 15//8 2//7 10//10 14//9
f 7//16 1//4 4//3 6//13
