# Blender v2.78 (sub 0) OBJ File: ''
# www.blender.org
mtllib icub_simple_collision_l_lower_leg.mtl
o l_shank_mesh_l_lowerleg
v 0.017789 0.001394 0.042623
v 0.042299 -0.064857 0.030689
v -0.000251 0.001634 0.043925
v 0.010369 -0.186128 0.040258
v 0.016786 -0.127371 0.042425
v -0.000335 -0.092396 0.045571
v -0.000502 -0.189885 0.041007
v 0.046221 -0.113693 0.010615
v 0.036627 -0.170000 0.017379
v 0.039049 -0.127586 0.026463
v 0.039574 -0.165980 -0.000002
v 0.038853 -0.170000 0.000020
v 0.046914 -0.113504 0.000004
v 0.036439 -0.170000 -0.016493
v 0.031641 -0.170000 0.028167
v 0.029817 -0.127477 0.036344
v 0.027280 -0.170648 0.033141
v 0.022622 -0.173163 0.036788
v 0.036696 -0.002076 0.037340
v 0.044293 -0.027391 0.030851
v 0.049770 -0.034719 0.021850
v 0.053642 -0.035956 0.009606
v 0.053948 -0.036179 -0.005214
v -0.000322 -0.100866 -0.044999
v 0.021049 -0.002074 -0.048115
v 0.032053 -0.064854 -0.040457
v 0.016536 -0.127469 -0.040936
v 0.010354 -0.186164 -0.035690
v 0.029556 -0.127557 -0.035324
v 0.022606 -0.173188 -0.033313
v -0.000502 -0.189888 -0.036041
v 0.046173 -0.114408 -0.010560
v 0.038882 -0.127640 -0.025986
v 0.027229 -0.170664 -0.030177
v 0.031641 -0.170000 -0.025696
v 0.051649 -0.035433 -0.019086
v 0.039942 -0.026284 -0.037783
v 0.035314 -0.002075 -0.042272
v -0.000506 -0.002074 -0.050526
v 0.045593 -0.032287 -0.031318
v 0.062841 0.011001 -0.012035
v 0.056170 0.030042 -0.013332
v 0.055874 0.030050 0.012910
v 0.064308 0.009781 0.000011
v 0.057661 0.030000 0.000000
v 0.058433 0.010849 -0.023625
v 0.051088 0.030185 -0.025312
v 0.059092 -0.013162 -0.021458
v 0.062750 -0.012878 -0.010772
v 0.062406 0.010981 0.012404
v 0.049251 -0.012527 -0.034053
v 0.047358 0.010658 -0.035724
v 0.063622 -0.013450 0.000005
v 0.062431 -0.012857 0.011030
v 0.037647 0.030563 -0.037989
v 0.020442 0.031047 -0.044238
v 0.000000 0.031623 -0.046116
v 0.056593 0.010822 0.023647
v 0.048851 0.030248 0.025344
v 0.048982 -0.012513 0.030627
v 0.057733 -0.013005 0.021553
v 0.044777 0.010603 0.033432
v 0.017921 0.031118 0.039877
v -0.000000 0.031623 0.041116
v 0.033925 0.030668 0.035603
v -0.010150 -0.190006 0.040368
v -0.013096 -0.188938 0.039178
v -0.015872 -0.098799 0.043885
v -0.027359 -0.074005 0.039379
v -0.016358 -0.183723 0.038559
v -0.018750 -0.181578 0.037504
v -0.031764 -0.180035 -0.011047
v -0.032088 -0.180050 0.011072
v -0.033154 -0.172030 -0.000006
v -0.029254 -0.180051 0.025044
v -0.037132 -0.059019 0.024914
v -0.039169 -0.059032 0.000000
v -0.024142 -0.180000 0.033110
v -0.022271 -0.002076 0.043290
v -0.032848 -0.054016 0.032630
v -0.033896 -0.002079 0.034008
v -0.014645 -0.045725 -0.047363
v -0.027927 -0.002083 -0.045373
v -0.027219 -0.081763 -0.039688
v -0.014714 -0.186667 -0.034434
v -0.010032 -0.189998 -0.035245
v -0.013063 -0.189097 -0.035124
v -0.016306 -0.183787 -0.034234
v -0.018669 -0.181631 -0.033444
v -0.029242 -0.180055 -0.022389
v -0.024142 -0.180000 -0.029568
v -0.034115 -0.052239 -0.033379
v -0.035670 -0.002075 -0.033878
v -0.037095 -0.059041 -0.025069
v 0.000000 0.000000 0.000000
v -0.017164 -0.000000 0.025688
v -0.025688 0.000000 -0.017164
v -0.006027 0.000000 -0.030301
v 0.017164 0.000000 -0.025688
v 0.030301 0.000000 -0.006027
v 0.025688 -0.000000 0.017164
v -0.000000 -0.213000 -0.000000
v -0.017164 -0.213000 0.025688
v -0.030301 -0.213000 0.006027
v -0.006027 -0.213000 -0.030301
v 0.025688 -0.213000 0.017164
v -0.030301 -0.000000 0.006027
v 0.006027 -0.000000 0.030301
v 0.030301 -0.213000 -0.006027
v 0.017164 -0.213000 -0.025688
v -0.025688 -0.213000 -0.017164
v 0.006027 -0.213000 0.030301
vn 0.0403 0.0435 0.9982
vn 0.1865 0.0378 0.9817
vn 0.0718 0.0918 0.9932
vn 0.1697 0.0851 0.9818
vn 0.3493 -0.0152 0.9369
vn 0.7078 -0.0573 0.7041
vn 0.2672 -0.0363 0.9629
vn 0.1512 -0.0534 0.9870
vn 0.4427 -0.0781 0.8932
vn 0.0309 -0.0124 0.9994
vn -0.0010 -0.0447 0.9990
vn 0.8531 -0.1028 0.5114
vn 0.9490 -0.1463 0.2792
vn 0.9726 -0.1048 0.2075
vn 0.2455 0.0310 -0.9689
vn 0.4217 0.0124 -0.9066
vn 0.5256 -0.0806 -0.8469
vn 0.9843 -0.1764 -0.0083
vn 0.9866 -0.1628 -0.0080
vn 0.8247 -0.1157 0.5535
vn 0.5808 -0.0597 0.8118
vn 0.6941 -0.0937 0.7137
vn -0.2117 -0.0603 -0.9754
vn 0.0053 -0.0712 -0.9974
vn -0.1864 -0.1152 -0.9757
vn -0.8324 -0.0420 0.5526
vn -0.9387 -0.0571 0.3398
vn -0.6584 -0.0406 0.7515
vn 0.2445 -0.0967 -0.9648
vn 0.5587 -0.1059 -0.8226
vn 0.1296 -0.0966 -0.9868
vn 0.3771 -0.0980 -0.9210
vn -0.0143 -0.0996 -0.9949
vn 0.5853 -0.1065 -0.8038
vn 0.9391 -0.1547 -0.3069
vn 0.6529 -0.1267 -0.7468
vn 0.8374 -0.1138 -0.5345
vn 0.7970 -0.1403 -0.5875
vn 0.6649 -0.1057 0.7394
vn 0.8695 -0.1691 0.4640
vn 0.0191 0.0148 -0.9997
vn 0.9008 0.3041 0.3100
vn 0.9905 0.1361 0.0201
vn 0.9485 0.3162 0.0163
vn 0.8505 0.1286 -0.5100
vn 0.7812 0.2665 -0.5646
vn 0.9176 0.3116 -0.2466
vn 0.9619 0.1537 -0.2261
vn 0.8748 -0.1654 -0.4554
vn 0.9620 -0.1877 -0.1983
vn 0.9452 0.1513 0.2894
vn 0.7682 -0.2078 -0.6055
vn 0.6545 -0.1032 -0.7489
vn 0.9760 -0.2166 0.0238
vn 0.9520 -0.1852 0.2434
vn 0.5999 0.1005 -0.7937
vn 0.7824 0.1253 0.6100
vn 0.8244 -0.1554 0.5442
vn 0.6987 0.2436 0.6727
vn 0.3763 0.1238 0.9182
vn 0.5093 0.0916 0.8557
vn 0.5911 -0.1098 0.7991
vn -0.2882 -0.0442 0.9565
vn -0.2007 -0.0560 0.9780
vn -0.4522 -0.0385 0.8911
vn 0.7088 0.5881 -0.3895
vn -0.4178 -0.1550 0.8952
vn -0.9881 -0.0591 0.1417
vn -0.9253 -0.0612 0.3742
vn -0.9986 -0.0521 -0.0011
vn -0.7461 -0.0618 0.6630
vn -0.9497 -0.0853 -0.3011
vn -0.9984 -0.0535 -0.0142
vn -0.9133 -0.0770 -0.3999
vn -0.9848 -0.0622 -0.1623
vn -0.3342 0.0081 0.9425
vn -0.6411 -0.0009 0.7674
vn -0.6430 -0.0825 -0.7614
vn -0.5543 -0.0303 -0.8318
vn -0.7882 -0.4036 -0.4645
vn 0.3619 0.0652 0.9299
vn -0.4701 -0.0958 -0.8774
vn -0.7077 -0.0943 -0.7002
vn 0.2263 0.1145 -0.9673
vn -0.8260 -0.0705 -0.5593
vn -0.8290 -0.0313 -0.5584
vn 0.4792 0.1532 -0.8642
vn 0.0000 1.0000 0.0000
vn -0.1515 0.6302 -0.7614
vn -0.6455 0.6302 -0.4313
vn 0.9591 -0.2258 0.1705
vn 0.9933 -0.1155 0.0016
vn 0.9694 -0.2353 -0.0701
vn 0.9725 -0.1155 -0.2021
vn 0.9026 -0.2385 -0.3583
vn 0.0943 0.1278 -0.9873
vn -0.7614 0.6302 0.1515
vn -0.4313 0.6302 0.6455
vn 0.1515 0.6302 0.7614
vn 0.6455 0.6302 0.4313
vn 0.7614 0.6302 -0.1515
vn 0.0000 -1.0000 0.0000
vn 0.1515 -0.6302 0.7614
vn -0.4313 -0.6302 0.6455
vn -0.7614 -0.6302 0.1515
vn -0.6455 -0.6302 -0.4313
vn -0.1515 -0.6302 -0.7614
vn 0.4313 0.6302 -0.6455
vn 0.4313 -0.6302 -0.6455
vn 0.7614 -0.6302 -0.1515
vn 0.6455 -0.6302 0.4313
vn -0.0808 -0.1391 -0.9870
usemtl iCub_light_blue
s 1
f 3//1 1//2 64//3
f 63//4 1//2 19//5
f 19//5 1//2 2//6
f 64//3 1//2 63//4
f 5//7 4//8 18//9
f 5//7 6//10 4//8
f 6//10 7//11 4//8
f 10//12 9//13 8//14
f 25//15 38//16 26//17
f 9//13 12//18 11//19
f 10//12 15//20 9//13
f 16//21 17//22 15//20
f 10//12 16//21 15//20
f 16//21 18//9 17//22
f 16//21 5//7 18//9
f 2//6 5//7 16//21
f 1//2 5//7 2//6
f 82//23 24//24 87//25
f 80//26 76//27 69//28
f 24//24 25//15 26//17
f 27//29 29//30 28//31
f 30//32 28//31 29//30
f 31//33 27//29 28//31
f 38//16 37//34 26//17
f 14//35 11//19 12//18
f 34//36 29//30 33//37
f 35//38 34//36 33//37
f 14//35 35//38 33//37
f 2//6 20//39 19//5
f 34//36 30//32 29//30
f 2//6 21//40 20//39
f 39//41 25//15 24//24
f 8//14 21//40 2//6
f 43//42 44//43 45//44
f 46//45 47//46 42//47
f 41//48 46//45 42//47
f 48//49 46//45 41//48
f 49//50 41//48 44//43
f 48//49 41//48 49//50
f 43//42 50//51 44//43
f 40//52 51//53 48//49
f 44//43 53//54 49//50
f 50//51 53//54 44//43
f 54//55 53//54 50//51
f 46//45 48//49 51//53
f 46//45 51//53 52//56
f 46//45 52//56 47//46
f 43//42 58//57 50//51
f 54//55 50//51 61//58
f 43//42 59//59 58//57
f 58//57 61//58 50//51
f 65//60 19//5 62//61
f 59//59 62//61 58//57
f 58//57 62//61 60//62
f 68//63 69//28 66//64
f 71//65 66//64 69//28
f 71//65 70//66 66//64
f 70//66 67//67 66//64
f 24//24 31//33 87//25
f 76//27 73//68 75//69
f 76//27 77//70 73//68
f 78//71 69//28 75//69
f 94//72 74//73 77//70
f 94//72 90//74 72//75
f 78//71 71//65 69//28
f 79//76 69//28 68//63
f 94//72 72//75 74//73
f 81//77 80//26 69//28
f 79//76 81//77 69//28
f 84//78 83//79 82//23
f 76//27 75//69 69//28
f 83//79 39//41 82//23
f 85//80 88//81 87//25
f 88//81 89//82 87//25
f 26//17 27//29 24//24
f 31//33 24//24 27//29
f 84//78 89//82 91//83
f 90//74 84//78 91//83
f 84//78 87//25 89//82
f 24//24 82//23 39//41
f 82//23 87//25 84//78
f 94//72 84//78 90//74
f 65//60 63//4 19//5
f 38//16 25//15 56//84
f 92//85 93//86 83//79
f 84//78 92//85 83//79
f 52//56 38//16 55//87
f 38//16 56//84 55//87
f 95//88 98//89 97//90
f 60//62 20//39 21//40
f 54//55 21//40 22//91
f 54//55 61//58 21//40
f 61//58 60//62 21//40
f 13//92 23//93 22//91
f 49//50 53//54 23//93
f 23//93 13//92 32//94
f 41//48 42//47 45//44
f 44//43 41//48 45//44
f 58//57 60//62 61//58
f 59//59 65//60 62//61
f 54//55 23//93 53//54
f 23//93 32//94 36//95
f 37//34 38//16 51//53
f 40//52 37//34 51//53
f 52//56 55//87 47//46
f 62//61 19//5 60//62
f 52//56 51//53 38//16
f 8//14 2//6 10//12
f 37//34 40//52 26//17
f 40//52 36//95 26//17
f 39//41 57//96 56//84
f 84//78 94//72 92//85
f 77//70 74//73 73//68
f 95//88 107//97 96//98
f 95//88 96//98 108//99
f 95//88 101//100 100//101
f 102//102 112//103 103//104
f 107//97 104//105 103//104 96//98
f 102//102 104//105 111//106
f 102//102 111//106 105//107
f 99//108 110//109 105//107 98//89
f 102//102 105//107 110//109
f 3//1 79//76 6//10
f 102//102 109//110 106//111
f 102//102 106//111 112//103
f 101//100 106//111 109//110 100//101
f 100//101 109//110 110//109 99//108
f 101//100 95//88 108//99
f 106//111 101//100 108//99 112//103
f 7//11 68//63 66//64
f 95//88 100//101 99//108
f 98//89 105//107 111//106 97//90
f 95//88 99//108 98//89
f 95//88 97//90 107//97
f 97//90 111//106 104//105 107//97
f 102//102 103//104 104//105
f 96//98 103//104 112//103 108//99
f 102//102 110//109 109//110
f 5//7 1//2 6//10
f 6//10 1//2 3//1
f 6//10 79//76 68//63
f 31//33 86//112 87//25
f 7//11 6//10 68//63
f 49//50 23//93 36//95
f 60//62 19//5 20//39
f 25//15 39//41 56//84
f 2//6 16//21 10//12
f 11//19 32//94 13//92
f 48//49 49//50 36//95
f 26//17 29//30 27//29
f 40//52 48//49 36//95
f 9//13 11//19 8//14
f 54//55 22//91 23//93
f 36//95 32//94 33//37
f 14//35 32//94 11//19
f 14//35 33//37 32//94
f 8//14 13//92 22//91
f 13//92 8//14 11//19
f 8//14 22//91 21//40
f 26//17 36//95 33//37
f 26//17 33//37 29//30
