# Blender v2.78 (sub 0) OBJ File: ''
# www.blender.org
mtllib icub_simple_collision_l_ankle_1.mtl
o l_ankle_1_mesh_Cylinder.026
v -0.009376 -0.022635 -0.031500
v 0.009376 -0.022635 -0.031500
v 0.022635 0.009376 -0.031500
v 0.009376 0.022635 0.031500
v 0.009376 -0.022635 0.031500
v 0.022635 0.009376 0.031500
v 0.022635 -0.009376 -0.031500
v -0.022635 -0.009376 -0.031500
v -0.022635 0.009376 -0.031500
v -0.009376 0.022635 -0.031500
v 0.009376 0.022635 -0.031500
v 0.022635 -0.009376 0.031500
v -0.009376 -0.022635 0.031500
v -0.022635 -0.009376 0.031500
v -0.022635 0.009376 0.031500
v -0.009376 0.022635 0.031500
vn 0.0000 0.0000 -1.0000
vn -0.0000 0.0000 1.0000
vn 0.7173 0.2971 0.6302
vn 0.7173 -0.2971 0.6302
vn 0.7173 -0.2971 -0.6302
vn 0.7173 0.2971 -0.6302
vn 0.2971 -0.7173 0.6302
vn 0.2971 -0.7173 -0.6302
vn -0.7173 0.2971 0.6302
vn -0.7173 0.2971 -0.6302
vn -0.7173 -0.2971 -0.6302
vn -0.7173 -0.2971 0.6302
vn -0.2971 -0.7173 -0.6302
vn -0.2971 -0.7173 0.6302
vn 0.2971 0.7173 -0.6302
vn 0.2971 0.7173 0.6302
vn -0.2971 0.7173 0.6302
vn -0.2971 0.7173 -0.6302
usemtl iCub_metal
s off
f 10//1 11//1 9//1
f 11//1 3//1 9//1
f 3//1 8//1 9//1
f 3//1 7//1 8//1
f 7//1 2//1 8//1
f 2//1 1//1 8//1
f 15//2 4//2 16//2
f 15//2 6//2 4//2
f 15//2 14//2 6//2
f 14//2 12//2 6//2
f 14//2 13//2 12//2
f 13//2 5//2 12//2
s 1
f 6//3 12//4 7//5 3//6
f 12//4 5//7 2//8 7//5
f 15//9 9//10 8//11 14//12
f 1//13 13//14 14//12 8//11
f 11//15 4//16 6//3 3//6
f 16//17 10//18 9//10 15//9
f 4//16 11//15 10//18 16//17
f 13//14 1//13 2//8 5//7
