# Blender v2.78 (sub 0) OBJ File: ''
# www.blender.org
mtllib icub_simple_collision_l_hip_pitch_link.mtl
o l_hip_1_mesh_Cylinder.016
v -0.014542 0.035154 0.031000
v -0.035107 0.014561 0.031000
v 0.014542 -0.035154 0.031000
v 0.035107 -0.014561 0.031000
v 0.035107 0.014561 0.031000
v -0.035107 -0.014561 0.044000
v -0.014542 -0.035154 0.044000
v -0.014542 -0.035154 0.031000
v -0.035107 -0.014561 0.031000
v 0.014542 0.035154 0.031000
v 0.035107 0.014561 0.044000
v 0.035107 -0.014561 0.044000
v 0.014542 -0.035154 0.044000
v -0.035107 0.014561 0.044000
v -0.014542 0.035154 0.044000
v 0.014542 0.035153 0.044000
vn 0.0000 0.0000 -1.0000
vn 0.0000 0.0000 1.0000
vn -0.2973 -0.7172 0.6302
vn -0.2973 -0.7172 -0.6302
vn 0.2973 -0.7172 -0.6302
vn 0.2973 -0.7172 0.6302
vn -0.7173 -0.2969 0.6303
vn -0.7173 0.2969 0.6303
vn -0.7173 0.2969 -0.6303
vn -0.7173 -0.2969 -0.6303
vn 0.7173 0.2969 -0.6303
vn 0.2973 0.7172 -0.6302
vn 0.2973 0.7172 0.6302
vn 0.7173 0.2969 0.6303
vn -0.2973 0.7172 -0.6302
vn -0.2973 0.7172 0.6302
vn 0.7173 -0.2969 0.6303
vn 0.7173 -0.2969 -0.6303
usemtl iCub_soft_grey
s off
f 2//1 1//1 10//1
f 2//1 10//1 5//1
f 9//1 2//1 5//1
f 9//1 5//1 4//1
f 9//1 4//1 3//1
f 9//1 3//1 8//1
f 16//2 15//2 14//2
f 11//2 16//2 14//2
f 11//2 14//2 6//2
f 12//2 11//2 6//2
f 7//2 12//2 6//2
f 7//2 13//2 12//2
s 1
f 7//3 8//4 3//5 13//6
f 6//7 14//8 2//9 9//10
f 6//7 9//10 8//4 7//3
f 5//11 10//12 16//13 11//14
f 1//15 15//16 16//13 10//12
f 15//16 1//15 2//9 14//8
f 11//14 12//17 4//18 5//11
f 13//6 3//5 4//18 12//17
