# Blender v2.78 (sub 0) OBJ File: ''
# www.blender.org
mtllib icub_simple_collision_l_shoulder_pitch_link.mtl
o l_shoulder_1_mesh_Cylinder.002
v 0.011863 0.028640 0.066740
v -0.011863 0.028640 0.066740
v -0.028640 0.011863 0.066740
v -0.028640 -0.011863 0.066740
v 0.011863 -0.028640 0.066740
v 0.028640 -0.011863 0.066740
v 0.028640 0.011863 0.066740
v -0.011863 -0.028640 0.066740
v 0.028640 0.011863 0.077740
v 0.028640 -0.011863 0.077740
v 0.011863 -0.028640 0.077740
v -0.011863 -0.028640 0.077740
v -0.028640 -0.011863 0.077740
v -0.028640 0.011863 0.077740
v -0.011863 0.028640 0.077740
v 0.011863 0.028640 0.077740
vn -0.0000 0.0000 1.0000
vn 0.0000 0.0000 -1.0000
vn -0.2971 0.7173 0.6302
vn -0.2971 0.7173 -0.6302
vn -0.7173 0.2971 -0.6302
vn -0.7173 0.2971 0.6302
vn -0.7173 -0.2971 0.6302
vn -0.7173 -0.2971 -0.6302
vn -0.2971 -0.7173 -0.6302
vn -0.2971 -0.7173 0.6302
vn 0.2971 -0.7173 0.6302
vn 0.2971 -0.7173 -0.6302
vn 0.7173 -0.2971 -0.6302
vn 0.7173 -0.2971 0.6302
vn 0.7173 0.2971 -0.6302
vn 0.7173 0.2971 0.6302
vn 0.2971 0.7173 0.6302
vn 0.2971 0.7173 -0.6302
usemtl iCub_soft_grey
s off
f 15//1 14//1 16//1
f 14//1 9//1 16//1
f 14//1 13//1 9//1
f 13//1 10//1 9//1
f 13//1 12//1 10//1
f 12//1 11//1 10//1
f 2//2 1//2 3//2
f 3//2 1//2 7//2
f 4//2 3//2 7//2
f 6//2 4//2 7//2
f 6//2 8//2 4//2
f 6//2 5//2 8//2
s 1
f 15//3 2//4 3//5 14//6
f 13//7 4//8 8//9 12//10
f 11//11 5//12 6//13 10//14
f 14//6 3//5 4//8 13//7
f 10//14 6//13 7//15 9//16
f 16//17 1//18 2//4 15//3
f 12//10 8//9 5//12 11//11
f 1//18 16//17 9//16 7//15
