# Blender v2.78 (sub 0) OBJ File: ''
# www.blender.org
mtllib icub_simple_collision_waist.mtl
o waist_mesh_Cube.003
v -0.023500 -0.057215 -0.032000
v 0.023500 -0.057215 -0.032000
v 0.023500 -0.057215 0.032000
v -0.023500 -0.057215 0.032000
v -0.023500 0.057215 -0.032000
v 0.023500 0.057215 -0.032000
v 0.023500 0.057215 0.032000
v -0.023500 0.057215 0.032000
vn -0.0000 1.0000 0.0000
vn -0.0000 0.0000 -1.0000
vn 1.0000 0.0000 0.0000
vn -0.0000 -0.0000 1.0000
vn -1.0000 -0.0000 -0.0000
vn 0.0000 -1.0000 -0.0000
usemtl iCub_inner_secondary
s off
f 8//1 6//1 5//1
f 5//2 2//2 1//2
f 6//3 3//3 2//3
f 7//4 4//4 3//4
f 1//5 8//5 5//5
f 8//1 7//1 6//1
f 5//2 6//2 2//2
f 6//3 7//3 3//3
f 7//4 8//4 4//4
f 1//5 4//5 8//5
usemtl iCub_inner_primary
f 2//6 4//6 1//6
f 2//6 3//6 4//6
